<?xml version="1.0" encoding="UTF-8" standalone="no"?>
<svg
   xmlns:dc="http://purl.org/dc/elements/1.1/"
   xmlns:cc="http://creativecommons.org/ns#"
   xmlns:rdf="http://www.w3.org/1999/02/22-rdf-syntax-ns#"
   xmlns:svg="http://www.w3.org/2000/svg"
   xmlns="http://www.w3.org/2000/svg"
   xmlns:sodipodi="http://sodipodi.sourceforge.net/DTD/sodipodi-0.dtd"
   xmlns:inkscape="http://www.inkscape.org/namespaces/inkscape"
   height="295px"
   version="1.1"
   viewBox="0 0 295 295"
   width="295px"
   id="svg13"
   sodipodi:docname="pane_icon.svg"
   inkscape:version="0.92.3 (2405546, 2018-03-11)">
  <metadata
     id="metadata17">
    <rdf:RDF>
      <cc:Work
         rdf:about="">
        <dc:format>image/svg+xml</dc:format>
        <dc:type
           rdf:resource="http://purl.org/dc/dcmitype/StillImage" />
      </cc:Work>
    </rdf:RDF>
  </metadata>
  <sodipodi:namedview
     pagecolor="#ffffff"
     bordercolor="#666666"
     borderopacity="1"
     objecttolerance="10"
     gridtolerance="10"
     guidetolerance="10"
     inkscape:pageopacity="0"
     inkscape:pageshadow="2"
     inkscape:window-width="1920"
     inkscape:window-height="1017"
     id="namedview15"
     showgrid="false"
     inkscape:zoom="1.1313708"
     inkscape:cx="-121.01513"
     inkscape:cy="140.14326"
     inkscape:window-x="-8"
     inkscape:window-y="-8"
     inkscape:window-maximized="1"
     inkscape:current-layer="svg13" />
  <title
     id="title2" />
  <desc
     id="desc4" />
  <defs
     id="defs6">
    <marker
       inkscape:stockid="Arrow1Lstart"
       orient="auto"
       refY="0.0"
       refX="0.0"
       id="Arrow1Lstart"
       style="overflow:visible"
       inkscape:isstock="true">
      <path
         id="path827"
         d="M 0.0,0.0 L 5.0,-5.0 L -12.5,0.0 L 5.0,5.0 L 0.0,0.0 z "
         style="fill-rule:evenodd;stroke:#000000;stroke-width:1.0pt"
         transform="scale(0.8) translate(12.5,0)" />
    </marker>
  </defs>
  <g
     style="fill:#4e4e4e;fill-opacity:1;fill-rule:nonzero;stroke:#4e4e4e;stroke-width:7.82563782;stroke-linecap:butt;stroke-miterlimit:4;stroke-dasharray:none;stroke-dashoffset:0;stroke-opacity:1;paint-order:markers fill stroke"
     id="multi-tab-5"
     transform="matrix(0.97709546,0,0,0.97409491,4.4519405,4.6771946)">
    <path
       inkscape:connector-curvature="0"
       style="fill:#4e4e4e;fill-opacity:1;stroke:#4e4e4e;stroke-width:7.82563782;stroke-linecap:butt;stroke-miterlimit:4;stroke-dasharray:none;stroke-dashoffset:0;stroke-opacity:1;paint-order:markers fill stroke"
       id="Shape-6"
       d="M 288.834,0 H 47.413 c -3.313,0 -6,2.687 -6,6 v 17.398 c 0,3.313 2.687,6 6,6 3.313,0 6,-2.687 6,-6 V 12 h 229.421 v 229.421 h -11.398 c -3.313,0 -6,2.687 -6,6 0,3.313 2.687,6 6,6 h 17.398 c 3.313,0 6,-2.687 6,-6 V 6 c 0,-3.313 -2.687,-6 -6,-6 z" />
    <path
       inkscape:connector-curvature="0"
       style="fill:#4e4e4e;fill-opacity:1;stroke:#4e4e4e;stroke-width:7.82563782;stroke-linecap:butt;stroke-miterlimit:4;stroke-dasharray:none;stroke-dashoffset:0;stroke-opacity:1;paint-order:markers fill stroke"
       id="path9-3"
       d="M 247.421,41.413 H 6 c -3.313,0 -6,2.687 -6,6 v 241.421 c 0,3.313 2.687,6 6,6 h 241.421 c 3.313,0 6,-2.687 6,-6 V 47.413 c 0,-3.313 -2.687,-6 -6,-6 z m -6,241.421 H 12 V 53.413 h 229.421 z" />
  </g>
</svg>
