<?xml version="1.0" ?><svg id="Layer_1" style="enable-background:new 0 0 1000 1000;" version="1.1" viewBox="0 0 1000 1000" xml:space="preserve" xmlns="http://www.w3.org/2000/svg" xmlns:xlink="http://www.w3.org/1999/xlink"><style type="text/css">
	.st0{fill:#191919;}
	.st1{opacity:0.2;fill:#FFFFFF;}
	.st2{fill:url(#XMLID_4_);}
	.st3{fill:#EDEDED;}
	.st4{fill:url(#XMLID_5_);}
</style><g id="XMLID_1_"><rect class="st0" height="375" id="XMLID_47_" width="375" x="125" y="312.5"/><polygon class="st0" id="XMLID_37_" points="875,312.5 875,687.5 523.4,546.9 500,537.5 406.3,500 500,462.5 523.4,453.1  "/><polygon class="st1" id="XMLID_43_" points="875,312.5 875,687.5 523.4,546.9 500,537.5 500,687.5 125,312.5 500,312.5 500,462.5    523.4,453.1  "/><linearGradient gradientUnits="userSpaceOnUse" id="XMLID_4_" x1="500" x2="650.4167" y1="500" y2="500"><stop offset="0" style="stop-color:#FFFFFF;stop-opacity:0.1"/><stop offset="1" style="stop-color:#000000;stop-opacity:0"/></linearGradient><polygon class="st2" id="XMLID_30_" points="650.4,453.1 650.4,546.9 523.4,546.9 500,537.5 500,462.5 523.4,453.1  "/><rect class="st3" height="187.5" id="XMLID_2_" width="187.5" x="218.8" y="406.3"/><linearGradient gradientUnits="userSpaceOnUse" id="XMLID_5_" x1="453.125" x2="453.125" y1="406.25" y2="593.75"><stop offset="0" style="stop-color:#FFFFFF;stop-opacity:0.1"/><stop offset="1" style="stop-color:#000000;stop-opacity:0"/></linearGradient><rect class="st4" height="187.5" id="XMLID_35_" width="93.8" x="406.3" y="406.3"/></g></svg>