<?xml version="1.0" encoding="UTF-8" standalone="no"?>
<svg
   xmlns:dc="http://purl.org/dc/elements/1.1/"
   xmlns:cc="http://creativecommons.org/ns#"
   xmlns:rdf="http://www.w3.org/1999/02/22-rdf-syntax-ns#"
   xmlns:svg="http://www.w3.org/2000/svg"
   xmlns="http://www.w3.org/2000/svg"
   xmlns:sodipodi="http://sodipodi.sourceforge.net/DTD/sodipodi-0.dtd"
   xmlns:inkscape="http://www.inkscape.org/namespaces/inkscape"
   height="512px"
   id="Layer_1"
   style="enable-background:new 0 0 512 512;"
   version="1.1"
   viewBox="0 0 512 512"
   width="512px"
   xml:space="preserve"
   sodipodi:docname="tab_close_hover.svg"
   inkscape:version="0.92.3 (2405546, 2018-03-11)"><metadata
     id="metadata9"><rdf:RDF><cc:Work
         rdf:about=""><dc:format>image/svg+xml</dc:format><dc:type
           rdf:resource="http://purl.org/dc/dcmitype/StillImage" /><dc:title /></cc:Work></rdf:RDF></metadata><defs
     id="defs7" /><sodipodi:namedview
     pagecolor="#ffffff"
     bordercolor="#666666"
     borderopacity="1"
     objecttolerance="10"
     gridtolerance="10"
     guidetolerance="10"
     inkscape:pageopacity="0"
     inkscape:pageshadow="2"
     inkscape:window-width="1920"
     inkscape:window-height="1017"
     id="namedview5"
     showgrid="false"
     inkscape:zoom="0.921875"
     inkscape:cx="175.16191"
     inkscape:cy="178.34137"
     inkscape:window-x="-8"
     inkscape:window-y="-8"
     inkscape:window-maximized="1"
     inkscape:current-layer="Layer_1" /><path
     d="m 382.74597,354.58228 -83.39584,-83.39583 83.39584,-83.39585 c 9.00369,-9.00368 9.00369,-23.49898 0,-32.50266 -9.00368,-9.00369 -23.49898,-9.00369 -32.50267,0 l -83.39584,83.39585 -83.39584,-83.39585 c -9.00369,-9.00369 -23.49898,-9.00369 -32.50267,0 -9.00368,9.00368 -9.00368,23.49898 0,32.50266 l 83.39585,83.39585 -83.39585,83.39583 c -9.00368,9.0037 -9.00368,23.499 0,32.50268 9.00369,9.00369 23.49898,9.00369 32.50267,0 l 83.39584,-83.39584 83.39584,83.39584 c 9.00369,9.00369 23.49899,9.00369 32.50267,0 8.93983,-9.00368 8.93983,-23.56284 0,-32.50268 z"
     id="path2"
     inkscape:connector-curvature="0"
     style="stroke-width:0.63855928;fill-opacity:1;fill:#ff0000;stroke:#000000;stroke-opacity:1" /></svg>