<?xml version="1.0" ?><svg viewBox="0 0 32 32" xmlns="http://www.w3.org/2000/svg"><defs><style>.cls-1{fill:#101820;}</style></defs><title/><g data-name="Layer 39" id="Layer_39"><path class="cls-1" d="M4,28a3,3,0,0,1-3-3V7A3,3,0,0,1,4,4h7a1,1,0,0,1,.77.36L14.8,8H27a1,1,0,0,1,0,2H14.33a1,1,0,0,1-.76-.36L10.53,6H4A1,1,0,0,0,3,7V25a1,1,0,0,0,1,1,1,1,0,0,1,0,2Z"/><path class="cls-1" d="M25.38,28H4a1,1,0,0,1-1-1.21l3-14A1,1,0,0,1,7,12H30a1,1,0,0,1,1,1.21L28.32,25.63A3,3,0,0,1,25.38,28ZM5.24,26H25.38a1,1,0,0,0,1-.79L28.76,14h-21Z"/></g></svg>