<?xml version="1.0" encoding="UTF-8" standalone="no"?>
<svg
   xmlns:dc="http://purl.org/dc/elements/1.1/"
   xmlns:cc="http://creativecommons.org/ns#"
   xmlns:rdf="http://www.w3.org/1999/02/22-rdf-syntax-ns#"
   xmlns:svg="http://www.w3.org/2000/svg"
   xmlns="http://www.w3.org/2000/svg"
   xmlns:sodipodi="http://sodipodi.sourceforge.net/DTD/sodipodi-0.dtd"
   xmlns:inkscape="http://www.inkscape.org/namespaces/inkscape"
   id="Layer_1"
   style="enable-background:new 0 0 30 30;"
   version="1.1"
   viewBox="0 0 30 30"
   xml:space="preserve"
   sodipodi:docname="setting.svg"
   inkscape:version="0.92.3 (2405546, 2018-03-11)"><metadata
     id="metadata11"><rdf:RDF><cc:Work
         rdf:about=""><dc:format>image/svg+xml</dc:format><dc:type
           rdf:resource="http://purl.org/dc/dcmitype/StillImage" /></cc:Work></rdf:RDF></metadata><defs
     id="defs9" /><sodipodi:namedview
     pagecolor="#ffffff"
     bordercolor="#666666"
     borderopacity="1"
     objecttolerance="10"
     gridtolerance="10"
     guidetolerance="10"
     inkscape:pageopacity="0"
     inkscape:pageshadow="2"
     inkscape:window-width="1920"
     inkscape:window-height="1017"
     id="namedview7"
     showgrid="false"
     inkscape:zoom="7.8666667"
     inkscape:cx="15"
     inkscape:cy="15"
     inkscape:window-x="-8"
     inkscape:window-y="-8"
     inkscape:window-maximized="1"
     inkscape:current-layer="Layer_1" /><style
     type="text/css"
     id="style2">
	.st0{fill:#5EA3D7;}
	.st1{fill:#D8D2D2;}
</style><path
     class="st0"
     d="M27.1950073,12.4500122l-3.1300049-0.6500244c-0.1199951-0.3399658-0.2600098-0.6599731-0.4000244-0.9599609  l1.7700195-2.6600342C25.6950073,7.7800293,25.6450195,7.25,25.3049927,6.9100342l-2.2199707-2.210022  c-0.3300171-0.3399658-0.8600464-0.3900146-1.25-0.1300049l-2.6800537,1.7700195  c-0.3099976-0.1500244-0.6299438-0.2800293-0.9699707-0.3900146l-0.6300049-3.1500244  C17.4650269,2.3300171,17.0549927,2,16.5750122,2h-3.1500244c-0.4699707,0-0.8800049,0.3300171-0.9799805,0.7999878  l-0.6300049,3.1500244c-0.3200073,0.1099854-0.6400146,0.2399902-0.9500122,0.4000244L8.1849976,4.5700073  C7.7849731,4.3099976,7.2650146,4.3600464,6.9249878,4.7000122l-2.2299805,2.210022  C4.3549805,7.25,4.3049927,7.7800293,4.5650024,8.1700439l1.7799683,2.6799927  c-0.1499634,0.3200073-0.289978,0.6399536-0.3999634,0.9499512l-3.1400146,0.6500244  c-0.460022,0.0999756-0.7999878,0.5-0.7999878,0.9799805v3.1300049c0,0.4800415,0.3399658,0.8900146,0.7999878,0.9800415  l3.1500244,0.6499634c0.1099854,0.3200073,0.2399902,0.6400146,0.3899536,0.9500122l-1.7799683,2.6799927  C4.3049927,22.2200317,4.3549805,22.75,4.6950073,23.0800171l2.2299805,2.2199707  c0.3400269,0.3300171,0.8599854,0.3900146,1.2600098,0.1200562l2.6799927-1.7700195  c0.3099976,0.1499634,0.6300049,0.2799683,0.9500122,0.3900146l0.6300049,3.1499634  C12.5449829,27.6600342,12.9550171,28,13.4249878,28h3.1500244c0.4799805,0,0.8900146-0.3399658,0.9799805-0.8099976  l0.6300049-3.1400146c0.3400269-0.1199951,0.6599731-0.25,0.9699707-0.3999634l2.6800537,1.7700195  c0.3899536,0.2699585,0.9199829,0.2099609,1.25-0.1200562l2.2199707-2.2199707  c0.3400269-0.3400269,0.3900146-0.8599854,0.1300049-1.2600098l-1.7800293-2.6699829  c0.1500244-0.3099976,0.2900391-0.6400146,0.4000244-0.960022l3.1400146-0.6499634  c0.4699707-0.0900269,0.7999878-0.5,0.7999878-0.9800415v-3.1300049  C27.9949951,12.9500122,27.664978,12.5499878,27.1950073,12.4500122z M15.0050049,20.3699951  c-2.960022,0-5.3699951-2.4099731-5.3699951-5.3800049c0-2.9599609,2.4099731-5.3699951,5.3699951-5.3699951  S20.375,12.0300293,20.375,14.9899902C20.375,17.960022,17.9650269,20.3699951,15.0050049,20.3699951z"
     id="path4"
     style="fill:#4e4e4e;fill-opacity:1" /></svg>