<?xml version="1.0" ?>
<svg height="295px" version="1.1" viewBox="0 0 295 295" width="295px" 
    xmlns="http://www.w3.org/2000/svg" 
    xmlns:xlink="http://www.w3.org/1999/xlink">
    <title/>
    <desc/>
    <defs/>
    <g fill="none" fill-rule="evenodd" id="Page-1" stroke="none" stroke-width="1">
        <g fill-rule="nonzero" id="multi-tab">
            <path d="M288.834,0 L47.413,0 C44.1,0 41.413,2.687 41.413,6 L41.413,23.398 C41.413,26.711 44.1,29.398 47.413,29.398 C50.726,29.398 53.413,26.711 53.413,23.398 L53.413,12 L282.834,12 L282.834,241.421 L271.436,241.421 C268.123,241.421 265.436,244.108 265.436,247.421 C265.436,250.734 268.123,253.421 271.436,253.421 L288.834,253.421 C292.147,253.421 294.834,250.734 294.834,247.421 L294.834,6 C294.834,2.687 292.147,0 288.834,0 Z" fill="#000000" id="Shape"/>
            <path d="M247.421,41.413 L6,41.413 C2.687,41.413 0,44.1 0,47.413 L0,288.834 C0,292.147 2.687,294.834 6,294.834 L247.421,294.834 C250.734,294.834 253.421,292.147 253.421,288.834 L253.421,47.413 C253.421,44.1 250.734,41.413 247.421,41.413 Z M241.421,282.834 L12,282.834 L12,53.413 L241.421,53.413 L241.421,282.834 Z" fill="#000000" id="Shape"/>
        </g>
    </g>
</svg>